# xmcd CD database file
#
# Track frame offsets:
#	150
#	17287
#	37967
#	68047
#
# Disc length: 1312 seconds
#
# Revision: 0
# Processed by: cddbd v1.5.1PL0 Copyright (c) Steve Scherf et al.
# Submitted via: CDex 1.50beta8
#
DISCID=22051e04
DTITLE=上原奈美 - Real Me
DYEAR=2005
DGENRE=JPop
TTITLE0=Real Me
TTITLE1=xoxo
TTITLE2=Slow Revolution -long ver.-
TTITLE3=Real Me (PV)
EXTD=YEAR: 2005
EXTT0=
EXTT1=
EXTT2=
EXTT3=
PLAYORDER=
